<?xml version="1.0" encoding="utf-8"?>
<!-- Generator: Adobe Illustrator 16.0.0, SVG Export Plug-In . SVG Version: 6.00 Build 0)  -->
<!DOCTYPE svg PUBLIC "-//W3C//DTD SVG 1.1//EN" "http://www.w3.org/Graphics/SVG/1.1/DTD/svg11.dtd">
<svg version="1.1" id="Capa_1" xmlns="http://www.w3.org/2000/svg" xmlns:xlink="http://www.w3.org/1999/xlink" x="0px" y="0px"
	 width="950px" height="100px" viewBox="0 0 950 100" enable-background="new 0 0 950 100" xml:space="preserve">
<filter  width="140%" height="130%" filterUnits="objectBoundingBox" x="-5%" y="-5%" id="AI_Sombra_2">
	<feGaussianBlur  stdDeviation="6" in="SourceAlpha" result="blur"></feGaussianBlur>
	<feOffset  dx="4" dy="4" in="blur" result="offsetBlurredAlpha"></feOffset>
	<feMerge>
		<feMergeNode  in="offsetBlurredAlpha"></feMergeNode>
		<feMergeNode  in="SourceGraphic"></feMergeNode>
	</feMerge>
</filter>
<filter  id="AI_DesenfoqueGaussiano_7">
	<feGaussianBlur  stdDeviation="7"></feGaussianBlur>
</filter>
<rect x="-7.876" y="272.434" fill="#040506" width="954.942" height="100"/>
<g filter="url(#AI_DesenfoqueGaussiano_7)">
	<linearGradient id="SVGID_1_" gradientUnits="userSpaceOnUse" x1="-1.7197" y1="422.9658" x2="951.7207" y2="422.9658">
		<stop  offset="0" style="stop-color:#6EB8E7"/>
		<stop  offset="0.0379" style="stop-color:#74BAE8"/>
		<stop  offset="0.0764" style="stop-color:#83C0EA"/>
		<stop  offset="0.1154" style="stop-color:#9ACAEE"/>
		<stop  offset="0.1543" style="stop-color:#B8D8F3"/>
		<stop  offset="0.172" style="stop-color:#C7DFF6"/>
		<stop  offset="0.3387" style="stop-color:#312783"/>
		<stop  offset="0.5215" style="stop-color:#D0E5F8"/>
		<stop  offset="1" style="stop-color:#36A9E1"/>
	</linearGradient>
	<path fill="url(#SVGID_1_)" d="M475,372.932c-158.907,13.682-317.813,27.363-476.72,41.043h0V473h953.44v-59.025
		C792.814,400.295,633.908,386.613,475,372.932z"/>
</g>
<linearGradient id="SVGID_2_" gradientUnits="userSpaceOnUse" x1="-305.9419" y1="-144.0078" x2="1022.124" y2="-144.0078">
	<stop  offset="0" style="stop-color:#6EB8E7"/>
	<stop  offset="0.0379" style="stop-color:#74BAE8"/>
	<stop  offset="0.0764" style="stop-color:#83C0EA"/>
	<stop  offset="0.1154" style="stop-color:#9ACAEE"/>
	<stop  offset="0.1543" style="stop-color:#B8D8F3"/>
	<stop  offset="0.172" style="stop-color:#C7DFF6"/>
	<stop  offset="0.3387" style="stop-color:#312783"/>
	<stop  offset="0.5215" style="stop-color:#D0E5F8"/>
	<stop  offset="1" style="stop-color:#36A9E1"/>
</linearGradient>
<rect x="-305.942" y="-219.508" fill="url(#SVGID_2_)" width="1328.066" height="151"/>
<g filter="url(#AI_Sombra_2)">
	<linearGradient id="SVGID_3_" gradientUnits="userSpaceOnUse" x1="-0.6523" y1="57.2363" x2="950.6523" y2="57.2363">
		<stop  offset="0" style="stop-color:#FFFFFF"/>
		<stop  offset="0.0777" style="stop-color:#FCFDFF"/>
		<stop  offset="0.1568" style="stop-color:#F2F7FD"/>
		<stop  offset="0.2367" style="stop-color:#E0EEFA"/>
		<stop  offset="0.3166" style="stop-color:#C7E0F6"/>
		<stop  offset="0.3184" style="stop-color:#C7DFF6"/>
		<stop  offset="0.4802" style="stop-color:#312783"/>
		<stop  offset="0.6874" style="stop-color:#D0E5F8"/>
		<stop  offset="1" style="stop-color:#F6F6F6"/>
	</linearGradient>
	<path fill="url(#SVGID_3_)" d="M950.652,100c-317.102,0-634.203,0-951.305,0c142.87-17.229,285.74-34.456,428.61-51.684
		c9.898-45.125,84.186-45.125,94.085,0C664.912,65.544,807.782,82.771,950.652,100z"/>
</g>
<linearGradient id="SVGID_4_" gradientUnits="userSpaceOnUse" x1="-305.9424" y1="-272.0078" x2="1022.124" y2="-272.0078">
	<stop  offset="0" style="stop-color:#6EB8E7"/>
	<stop  offset="0.0379" style="stop-color:#74BAE8"/>
	<stop  offset="0.0764" style="stop-color:#83C0EA"/>
	<stop  offset="0.1154" style="stop-color:#9ACAEE"/>
	<stop  offset="0.1543" style="stop-color:#B8D8F3"/>
	<stop  offset="0.172" style="stop-color:#C7DFF6"/>
	<stop  offset="0.3387" style="stop-color:#312783"/>
	<stop  offset="0.5215" style="stop-color:#D0E5F8"/>
	<stop  offset="1" style="stop-color:#36A9E1"/>
</linearGradient>
<path fill="url(#SVGID_4_)" d="M1022.124-219.508c-442.688,0-885.378,0-1328.066,0c221.344-35,442.688-70,664.032-105l0,0
	C579.436-289.508,800.779-254.508,1022.124-219.508z"/>
<image overflow="visible" width="150" height="150" xlink:href="467D81EB.png"  transform="matrix(0.4511 0 0 0.4511 444.1646 10)">
</image>
<path fill="#FFFFFF" d="M726.572,101.517v-7.44c0-4.156-5.373-7.526-12-7.526H265.935c-6.627,0-12,3.37-12,7.526v7.44H726.572z"/>
<text transform="matrix(1 0 0 1 299.208 220.084)" fill="#FFFFFF" font-family="'OCRAExtended'" font-size="16.8192" letter-spacing="3">DIGITAL FLUTE :: WELCOME ::</text>
</svg>
